Coordinates
version=1
nRows=25
nColumns=34
inDegrees=no

Units are S.I. units (second, meters, Newtons, ...)
If the header above contains a line with 'inDegrees', this indicates whether rotational values are in degrees (yes) or radians (no).

endheader
time	pelvis_tilt	pelvis_list	pelvis_rotation	pelvis_tx	pelvis_ty	pelvis_tz	hip_flexion_r	hip_adduction_r	hip_rotation_r	knee_angle_r	ankle_angle_r	subtalar_angle_r	mtp_angle_r	hip_flexion_l	hip_adduction_l	hip_rotation_l	knee_angle_l	ankle_angle_l	subtalar_angle_l	mtp_angle_l	lumbar_extension	lumbar_bending	lumbar_rotation	arm_flex_r	arm_add_r	arm_rot_r	elbow_flex_r	pro_sup_r	arm_flex_l	arm_add_l	arm_rot_l	elbow_flex_l	pro_sup_l
2.25	-0.589734	-0.0391524	-0.0623649	-0.389475	1.00184	-0.544031	1.22846	-0.0907033	-0.0797921	0.792007	0.17096	-0.0313513	-0.00524812	1.17754	-0.458088	-0.184912	0.750615	0.198383	0.236471	-0.00687175	-0.447674	0.00536813	0.19058	1.37131	-0.278071	0.220185	1.83643	1.96831	1.35181	-0.127476	0.368046	1.80262	2.09441
2.26	-0.600087	-0.0422116	-0.0634403	-0.392732	0.99487	-0.539869	1.2563	-0.08504	-0.0802705	0.818236	0.178195	-0.0399486	-0.00524736	1.20805	-0.468878	-0.174794	0.773301	0.205332	0.240974	-0.00686733	-0.453121	0.00455009	0.195283	1.39898	-0.278791	0.221584	1.83221	1.96646	1.37549	-0.123402	0.364205	1.79818	2.0938
2.27	-0.610135	-0.0452305	-0.064435	-0.395833	0.987817	-0.535785	1.28377	-0.0795637	-0.0809024	0.844477	0.1853	-0.04853	-0.0052466	1.23834	-0.479157	-0.164012	0.795822	0.21205	0.245477	-0.0068629	-0.458356	0.00380327	0.199477	1.42575	-0.27908	0.223178	1.82799	1.96395	1.39827	-0.119881	0.360392	1.79409	2.09291
2.28	-0.619982	-0.0481465	-0.0652748	-0.398793	0.980685	-0.531799	1.31096	-0.0743594	-0.0815862	0.870659	0.192243	-0.0571544	-0.00524585	1.26848	-0.488777	-0.152631	0.8181	0.218514	0.249954	-0.00685849	-0.463302	0.00314604	0.203056	1.45169	-0.27892	0.225047	1.82375	1.96094	1.42016	-0.117033	0.356652	1.79045	2.09161
2.29	-0.629706	-0.0509186	-0.0659044	-0.401622	0.973481	-0.527923	1.33795	-0.0694756	-0.082227	0.896702	0.198995	-0.0658867	-0.00524509	1.29851	-0.497638	-0.140719	0.840065	0.224686	0.254391	-0.00685407	-0.467896	0.00257349	0.206005	1.47687	-0.278405	0.227211	1.81956	1.95768	1.44121	-0.114864	0.353066	1.78732	2.08995
2.3	-0.639366	-0.0535226	-0.0662982	-0.40433	0.966211	-0.52416	1.36476	-0.0649169	-0.0827396	0.922524	0.205534	-0.0747955	-0.00524434	1.32845	-0.505698	-0.128341	0.861664	0.230534	0.258789	-0.00684965	-0.472084	0.00204636	0.208397	1.50127	-0.277736	0.229621	1.8155	1.95436	1.46148	-0.11326	0.349746	1.78467	2.08806
2.31	-0.648997	-0.0559399	-0.0664593	-0.406924	0.958885	-0.520505	1.39141	-0.0606455	-0.0830432	0.948057	0.211841	-0.0839376	-0.0052436	1.3583	-0.512972	-0.115577	0.88287	0.236059	0.263152	-0.00684524	-0.47584	0.00149041	0.210372	1.52489	-0.277168	0.232181	1.81173	1.9511	1.48103	-0.112026	0.346812	1.78242	2.08615
2.32	-0.658598	-0.0581511	-0.0664148	-0.409407	0.951515	-0.516949	1.41786	-0.0565997	-0.0830557	0.973254	0.217899	-0.0933302	-0.00524285	1.38799	-0.519509	-0.102535	0.903682	0.241294	0.267493	-0.00684084	-0.479172	0.000803081	0.212084	1.54769	-0.276936	0.234785	1.80838	1.94796	1.49995	-0.110955	0.344361	1.78045	2.08444
2.33	-0.66813	-0.0601199	-0.0661993	-0.411782	0.944114	-0.513485	1.44407	-0.05272	-0.0826914	0.9981	0.223689	-0.102931	-0.00524211	1.41742	-0.52537	-0.089359	0.924114	0.246296	0.271829	-0.00683643	-0.482134	-0.000128129	0.213652	1.56967	-0.277199	0.237349	1.80553	1.94493	1.51835	-0.109882	0.342444	1.77868	2.0831
2.34	-0.677516	-0.0617863	-0.0658302	-0.414049	0.9367	-0.510108	1.46998	-0.0489772	-0.0818653	1.02261	0.2292	-0.112645	-0.00524137	1.44642	-0.530598	-0.0762335	0.944183	0.251125	0.276172	-0.00683204	-0.484819	-0.00140432	0.215133	1.59085	-0.278028	0.239832	1.8032	1.94199	1.53629	-0.108713	0.34106	1.77701	2.08229
2.35	-0.686669	-0.0630759	-0.0652868	-0.416209	0.929288	-0.506822	1.49554	-0.0453953	-0.0805039	1.04683	0.234434	-0.122356	-0.00524064	1.47479	-0.535196	-0.0633597	0.963892	0.255828	0.280513	-0.00682765	-0.487336	-0.00309195	0.21651	1.61131	-0.279423	0.242253	1.80137	1.93915	1.55388	-0.107416	0.340151	1.7754	2.08215
2.36	-0.695506	-0.0639174	-0.0645011	-0.418264	0.921894	-0.503638	1.5207	-0.0420585	-0.0785605	1.0708	0.239412	-0.131955	-0.00523991	1.50237	-0.539117	-0.050932	0.983235	0.260442	0.284815	-0.00682327	-0.489784	-0.00520459	0.217711	1.63111	-0.28135	0.244687	1.79998	1.9364	1.57116	-0.106006	0.339623	1.77382	2.08276
2.37	-0.703974	-0.0642589	-0.0633664	-0.420214	0.914529	-0.500574	1.54545	-0.039102	-0.0760295	1.09459	0.24417	-0.141338	-0.00523918	1.529	-0.542275	-0.0391159	1.0022	0.264988	0.289015	-0.00681889	-0.492226	-0.00770034	0.218632	1.65034	-0.283767	0.24723	1.79896	1.93366	1.58815	-0.104515	0.339364	1.77226	2.08418
2.38	-0.712045	-0.0640746	-0.061759	-0.422061	0.907202	-0.49765	1.56977	-0.0366913	-0.0729512	1.11825	0.248761	-0.150403	-0.00523846	1.55461	-0.544577	-0.0280383	1.02076	0.269474	0.293045	-0.00681452	-0.494682	-0.0104971	0.219174	1.66901	-0.286642	0.249964	1.79827	1.9309	1.60481	-0.102968	0.339272	1.77073	2.08639
2.39	-0.719723	-0.0633602	-0.0595665	-0.423808	0.89992	-0.494881	1.59368	-0.0349946	-0.0694045	1.14182	0.253251	-0.159036	-0.00523774	1.57915	-0.545946	-0.0177874	1.03893	0.273895	0.296852	-0.00681015	-0.497135	-0.0134988	0.219269	1.68714	-0.289964	0.252928	1.79788	1.92813	1.62108	-0.101365	0.33926	1.76923	2.08926
2.4	-0.727018	-0.0621266	-0.0567175	-0.425457	0.892689	-0.492282	1.61717	-0.0341494	-0.0654944	1.16529	0.25771	-0.167108	-0.00523702	1.60261	-0.546357	-0.00841881	1.05671	0.278232	0.300408	-0.00680578	-0.499559	-0.0166214	0.2189	1.70469	-0.293736	0.256112	1.79776	1.92559	1.63691	-0.0996864	0.339269	1.76781	2.09243
2.41	-0.733928	-0.0603974	-0.0532107	-0.42701	0.885523	-0.489858	1.64021	-0.0342282	-0.0613438	1.18864	0.262203	-0.174479	-0.00523631	1.62498	-0.545865	4.11151e-05	1.0741	0.282463	0.303721	-0.00680141	-0.501952	-0.0198115	0.218111	1.72164	-0.297963	0.259476	1.79792	1.92355	1.65221	-0.0978984	0.339251	1.76649	2.09551
2.42	-0.740413	-0.0582125	-0.0491364	-0.428468	0.878443	-0.487605	1.6627	-0.0352128	-0.0570947	1.21179	0.26678	-0.181005	-0.0052356	1.64624	-0.544629	0.00759332	1.09114	0.286567	0.306829	-0.00679705	-0.504367	-0.0230513	0.217015	1.73799	-0.302628	0.262966	1.79834	1.92223	1.66694	-0.0959813	0.339163	1.76531	2.09818
2.43	-0.746382	-0.0556327	-0.0446842	-0.429829	0.87148	-0.485513	1.68445	-0.0369883	-0.0529132	1.2346	0.271481	-0.186535	-0.00523489	1.66629	-0.542915	0.014268	1.10781	0.290531	0.309797	-0.00679269	-0.506931	-0.0263479	0.215782	1.75376	-0.307657	0.266541	1.799	1.92173	1.68108	-0.0939557	0.338952	1.76431	2.10021
2.44	-0.7517	-0.052743	-0.0401255	-0.431086	0.864676	-0.483565	1.7052	-0.0393631	-0.0489916	1.2569	0.276339	-0.190904	-0.00523418	1.68504	-0.541073	0.0201298	1.12413	0.294362	0.312704	-0.00678833	-0.509837	-0.029711	0.214622	1.769	-0.312899	0.270194	1.7998	1.92207	1.69461	-0.0919013	0.338544	1.76353	2.10149
2.45	-0.756213	-0.0496495	-0.035768	-0.432236	0.858079	-0.481744	1.72469	-0.0421131	-0.0455382	1.27851	0.281382	-0.193946	-0.00523348	1.70236	-0.539476	0.0252817	1.14007	0.298081	0.315627	-0.00678398	-0.513305	-0.0331284	0.213745	1.78381	-0.318132	0.273965	1.80059	1.92314	1.70755	-0.089953	0.33784	1.76302	2.10195
2.46	-0.759801	-0.046471	-0.0318997	-0.433274	0.851739	-0.480036	1.74267	-0.0450315	-0.0427555	1.29924	0.286638	-0.195506	-0.00523278	1.71816	-0.538446	0.0298639	1.15562	0.301722	0.318622	-0.00677963	-0.517518	-0.0365577	0.213336	1.79829	-0.323109	0.277921	1.8012	1.92481	1.71988	-0.0882693	0.336733	1.76283	2.10162
2.47	-0.762409	-0.0433302	-0.0287514	-0.434201	0.845699	-0.478426	1.75897	-0.0479511	-0.0408161	1.31893	0.292122	-0.195481	-0.00523208	1.73245	-0.538211	0.0340477	1.17072	0.305319	0.321711	-0.00677528	-0.522567	-0.0399352	0.213546	1.81249	-0.327615	0.28213	1.80149	1.92696	1.73161	-0.0869859	0.335129	1.763	2.10062
2.48	-0.764056	-0.0403463	-0.0264902	-0.435022	0.839997	-0.476903	1.7735	-0.0507318	-0.0398473	1.33742	0.297817	-0.193852	-0.00523139	1.74529	-0.538896	0.0380252	1.1853	0.308899	0.324876	-0.00677093	-0.528445	-0.0431952	0.214489	1.82646	-0.331499	0.286634	1.80135	1.92945	1.74273	-0.0861836	0.332968	1.7635	2.09916
2.49	-0.764818	-0.0376242	-0.0252272	-0.435746	0.834668	-0.475453	1.78626	-0.0532385	-0.0399199	1.35458	0.303672	-0.190703	-0.0052307	1.75677	-0.540546	0.0419928	1.19927	0.312472	0.328066	-0.00676659	-0.535064	-0.0462881	0.216255	1.84016	-0.334691	0.291431	1.80074	1.93211	1.75323	-0.0858802	0.330233	1.76428	2.09757
